REM DIRINDEX 1\5,1\2\6,1\2\7,1\3\8,1\3\9,1\4\10,1\4\11,1\4\12
REM DIRNAME folder01,folder02,folder03,folder04,folder05,folder06,folder07,folder08,folder09,folder10,folder11,folder12
TITLE ""
FILE "EJE_DB3000_5th_3B_23.mp3" MP3
  TRACK 01 AUDIO
    TITLE "0:"
    INDEX 01 00:00:00
  TRACK 02 AUDIO
    TITLE "10:cjc026_09048"
    INDEX 01 00:00:05
  TRACK 03 AUDIO
    TITLE "0:"
    INDEX 01 00:02:08
  TRACK 04 AUDIO
    TITLE "11:cjc026_09049"
    INDEX 01 00:02:34
  TRACK 05 AUDIO
    TITLE "0:"
    INDEX 01 00:04:01
  TRACK 06 AUDIO
    TITLE "12:cjc026_09050"
    INDEX 01 00:04:27
  TRACK 07 AUDIO
    TITLE "0:"
    INDEX 01 00:06:30
  TRACK 08 AUDIO
    TITLE "10:cjc026_09051"
    INDEX 01 00:06:55
  TRACK 09 AUDIO
    TITLE "0:"
    INDEX 01 00:07:51
  TRACK 10 AUDIO
    TITLE "11:cjc026_09052"
    INDEX 01 00:08:03
  TRACK 11 AUDIO
    TITLE "0:"
    INDEX 01 00:09:16
  TRACK 12 AUDIO
    TITLE "12:cjc026_09053"
    INDEX 01 00:09:42
  TRACK 13 AUDIO
    TITLE "0:"
    INDEX 01 00:10:37
  TRACK 14 AUDIO
    TITLE "10:cjc026_09054"
    INDEX 01 00:10:63
  TRACK 15 AUDIO
    TITLE "0:"
    INDEX 01 00:11:62
  TRACK 16 AUDIO
    TITLE "11:cjc026_09055"
    INDEX 01 00:12:12
  TRACK 17 AUDIO
    TITLE "0:"
    INDEX 01 00:13:30
  TRACK 18 AUDIO
    TITLE "12:cjc026_09056"
    INDEX 01 00:13:55
  TRACK 19 AUDIO
    TITLE "0:"
    INDEX 01 00:14:54
  TRACK 20 AUDIO
    TITLE "10:cjc026_09057"
    INDEX 01 00:15:05
  TRACK 21 AUDIO
    TITLE "0:"
    INDEX 01 00:16:20
  TRACK 22 AUDIO
    TITLE "11:cjc026_09058"
    INDEX 01 00:16:46
  TRACK 23 AUDIO
    TITLE "0:"
    INDEX 01 00:18:01
  TRACK 24 AUDIO
    TITLE "12:cjc026_09059"
    INDEX 01 00:18:27
  TRACK 25 AUDIO
    TITLE "0:"
    INDEX 01 00:19:42
  TRACK 26 AUDIO
    TITLE "10:cjc026_09060"
    INDEX 01 00:19:67
  TRACK 27 AUDIO
    TITLE "0:"
    INDEX 01 00:21:08
  TRACK 28 AUDIO
    TITLE "11:cjc026_09061"
    INDEX 01 00:21:35
  TRACK 29 AUDIO
    TITLE "0:"
    INDEX 01 00:22:68
  TRACK 30 AUDIO
    TITLE "12:cjc026_09062"
    INDEX 01 00:23:18
  TRACK 31 AUDIO
    TITLE "0:"
    INDEX 01 00:24:33
  TRACK 32 AUDIO
    TITLE "10:cjc026_09063"
    INDEX 01 00:24:59
  TRACK 33 AUDIO
    TITLE "0:"
    INDEX 01 00:25:62
  TRACK 34 AUDIO
    TITLE "11:cjc026_09064"
    INDEX 01 00:26:15
  TRACK 35 AUDIO
    TITLE "0:"
    INDEX 01 00:27:53
  TRACK 36 AUDIO
    TITLE "12:cjc026_09065"
    INDEX 01 00:28:06
  TRACK 37 AUDIO
    TITLE "0:"
    INDEX 01 00:29:09
  TRACK 38 AUDIO
    TITLE "10:cjc026_09066"
    INDEX 01 00:29:34
  TRACK 39 AUDIO
    TITLE "0:"
    INDEX 01 00:30:50
  TRACK 40 AUDIO
    TITLE "11:cjc026_09067"
    INDEX 01 00:31:04
  TRACK 41 AUDIO
    TITLE "0:"
    INDEX 01 00:32:15
  TRACK 42 AUDIO
    TITLE "12:cjc026_09068"
    INDEX 01 00:32:41
  TRACK 43 AUDIO
    TITLE "0:"
    INDEX 01 00:33:54
  TRACK 44 AUDIO
    TITLE "10:cjc026_09069"
    INDEX 01 00:34:10
  TRACK 45 AUDIO
    TITLE "0:"
    INDEX 01 00:37:08
  TRACK 46 AUDIO
    TITLE "11:cjc026_09070"
    INDEX 01 00:37:34
  TRACK 47 AUDIO
    TITLE "0:"
    INDEX 01 00:38:71
  TRACK 48 AUDIO
    TITLE "12:cjc026_09071"
    INDEX 01 00:39:23
  TRACK 49 AUDIO
    TITLE "0:"
    INDEX 01 00:42:19
  TRACK 50 AUDIO
    TITLE "10:cjc026_09072"
    INDEX 01 00:42:45
  TRACK 51 AUDIO
    TITLE "0:"
    INDEX 01 00:44:14
  TRACK 52 AUDIO
    TITLE "11:cjc026_09073"
    INDEX 01 00:44:44
  TRACK 53 AUDIO
    TITLE "0:"
    INDEX 01 00:46:06
  TRACK 54 AUDIO
    TITLE "12:cjc026_09074"
    INDEX 01 00:46:31
  TRACK 55 AUDIO
    TITLE "0:"
    INDEX 01 00:47:72
  TRACK 56 AUDIO
    TITLE "10:cjc026_09075"
    INDEX 01 00:48:30
  TRACK 57 AUDIO
    TITLE "0:"
    INDEX 01 00:49:43
  TRACK 58 AUDIO
    TITLE "11:cjc026_09076"
    INDEX 01 00:49:70
  TRACK 59 AUDIO
    TITLE "0:"
    INDEX 01 00:51:38
  TRACK 60 AUDIO
    TITLE "12:cjc026_09077"
    INDEX 01 00:51:63
  TRACK 61 AUDIO
    TITLE "0:"
    INDEX 01 00:53:04
  TRACK 62 AUDIO
    TITLE "10:cjc026_09078"
    INDEX 01 00:53:31
  TRACK 63 AUDIO
    TITLE "0:"
    INDEX 01 00:54:38
  TRACK 64 AUDIO
    TITLE "11:cjc026_09079"
    INDEX 01 00:54:66
  TRACK 65 AUDIO
    TITLE "0:"
    INDEX 01 00:56:45
  TRACK 66 AUDIO
    TITLE "12:cjc026_09080"
    INDEX 01 00:56:71
  TRACK 67 AUDIO
    TITLE "0:"
    INDEX 01 00:58:03
  TRACK 68 AUDIO
    TITLE "10:cjc026_09081"
    INDEX 01 00:58:32
  TRACK 69 AUDIO
    TITLE "0:"
    INDEX 01 00:59:28
  TRACK 70 AUDIO
    TITLE "11:cjc026_09082"
    INDEX 01 00:59:55
  TRACK 71 AUDIO
    TITLE "0:"
    INDEX 01 01:01:38
  TRACK 72 AUDIO
    TITLE "12:cjc026_09083"
    INDEX 01 01:01:64
  TRACK 73 AUDIO
    TITLE "0:"
    INDEX 01 01:02:61
